<?xml version="1.0" standalone="no"?>
<!DOCTYPE svg PUBLIC "-//W3C//DTD SVG 20010904//EN"
 "http://www.w3.org/TR/2001/REC-SVG-20010904/DTD/svg10.dtd">
<svg version="1.0" xmlns="http://www.w3.org/2000/svg"
 width="320.000000pt" height="320.000000pt" viewBox="0 0 320.000000 320.000000"
 preserveAspectRatio="xMidYMid meet">
<metadata>
Created by potrace 1.14, written by Peter Selinger 2001-2017
</metadata>
<g transform="translate(0.000000,320.000000) scale(0.100000,-0.100000)"
fill="#000000" stroke="none">
<path d="M306 3189 c-62 -15 -153 -68 -197 -116 -22 -24 -55 -74 -72 -111
l-32 -67 0 -1296 0 -1295 37 -76 c45 -91 103 -147 196 -191 l67 -32 1296 0
1295 0 76 37 c91 45 147 103 191 196 l32 67 0 1295 0 1295 -32 67 c-44 93
-100 151 -191 196 l-76 37 -1275 2 c-749 1 -1292 -3 -1315 -8z m1380 -1060
c54 -17 110 -30 123 -30 15 1 37 -11 55 -28 17 -17 51 -39 76 -49 54 -24 143
-113 165 -164 17 -43 19 -44 160 -55 l100 -9 -125 -8 c-170 -11 -171 -11 -187
43 -19 67 -31 77 -207 178 -11 7 -29 13 -40 13 -10 0 -31 11 -48 25 -67 56
-191 70 -276 30 -36 -17 -62 -23 -83 -18 -26 5 -35 0 -71 -41 -23 -25 -46 -46
-51 -46 -19 0 -120 -116 -129 -147 l-9 -33 -157 2 -157 1 105 9 c147 13 147
13 160 53 7 20 29 49 50 66 22 18 43 44 49 60 6 17 25 36 50 49 23 11 41 24
41 29 0 17 53 43 104 51 28 4 76 17 106 29 72 27 80 26 196 -10z m-44 -80 c71
-15 255 -111 311 -162 48 -44 86 -97 70 -97 -5 0 -16 12 -24 26 -24 46 -93 97
-212 158 -108 56 -120 60 -200 64 -111 6 -177 -14 -259 -76 -35 -27 -85 -76
-112 -110 -28 -34 -52 -60 -54 -57 -9 9 52 86 111 141 114 106 231 142 369
113z m104 -89 c147 -50 196 -86 218 -157 12 -38 -8 -25 -28 18 -23 51 -66 79
-190 123 -81 30 -112 36 -178 36 -46 0 -93 -6 -113 -14 -49 -21 -44 -28 6 -11
64 23 139 19 232 -14 45 -15 102 -38 125 -50 48 -25 122 -88 122 -104 0 -6
-17 5 -37 25 -52 49 -111 80 -223 118 -116 40 -169 37 -274 -13 -62 -30 -146
-97 -146 -117 0 -4 -13 -7 -30 -8 l-30 -1 45 39 c62 54 156 125 185 140 80 42
174 39 316 -10z m-101 -36 c22 -8 73 -27 112 -40 69 -25 133 -69 133 -93 0 -7
-16 4 -35 23 -20 20 -53 40 -77 47 -24 6 -70 22 -103 36 -110 47 -211 24 -333
-75 -24 -19 -45 -32 -48 -29 -3 3 18 24 47 47 118 93 212 119 304 84z m66 -75
c53 -21 102 -39 107 -39 6 0 14 -5 17 -10 10 -17 -39 -2 -142 41 -130 55 -195
50 -299 -22 -25 -17 -48 -29 -51 -26 -9 10 107 80 155 93 60 17 94 11 213 -37z
m-24 -27 c26 -18 42 -32 35 -32 -8 0 -28 10 -45 22 -20 15 -50 23 -88 26 -49
4 -67 0 -120 -27 -49 -24 -58 -27 -44 -11 10 11 41 29 69 40 70 28 131 22 193
-18z m-42 -22 c9 -7 13 -15 10 -18 -2 -3 -11 1 -20 8 -11 9 -36 11 -85 7 -39
-3 -70 -4 -70 -2 0 3 15 9 33 14 40 13 112 8 132 -9z m-920 -150 c21 -55 46
-112 57 -125 l19 -25 -58 1 c-32 0 -52 3 -45 6 6 2 12 16 12 29 0 24 -3 25
-47 22 -37 -2 -49 -7 -51 -22 -2 -10 2 -22 10 -27 8 -6 -5 -9 -35 -9 l-49 0
24 28 c13 16 44 72 68 125 24 54 47 97 50 97 4 0 24 -45 45 -100z m200 56 c17
-17 47 -52 67 -76 l37 -45 1 66 c0 57 -3 69 -22 81 -20 13 -17 14 31 14 47 0
51 -1 34 -13 -15 -12 -19 -32 -23 -131 l-5 -116 -80 94 -80 94 -3 -74 c-2 -62
0 -77 14 -87 15 -11 11 -13 -31 -13 -41 0 -46 2 -33 13 11 8 18 38 22 104 6
86 5 93 -15 112 l-22 20 39 -5 c26 -4 49 -16 69 -38z m338 37 c90 -10 134 -77
108 -164 -19 -62 -55 -79 -171 -79 -88 0 -93 1 -72 16 20 14 22 23 22 109 0
85 -2 95 -21 109 -21 14 -19 15 32 15 30 0 76 -3 102 -6z m221 -16 c-5 -16 32
-147 42 -147 2 0 15 22 29 50 20 39 23 54 15 75 -5 14 -14 25 -20 25 -5 0 -10
3 -10 8 0 4 25 7 55 7 52 0 71 -8 43 -18 -10 -3 -7 -21 10 -75 13 -40 24 -72
26 -72 2 0 15 32 31 71 26 66 26 71 10 83 -15 11 -11 13 29 13 41 0 61 -10 37
-19 -6 -1 -35 -57 -66 -122 -30 -65 -57 -117 -60 -115 -2 3 -17 40 -33 84
l-29 80 -43 -85 c-49 -98 -44 -100 -100 55 -18 50 -41 97 -52 106 -18 14 -16
15 36 15 49 -1 55 -3 50 -19z m531 -7 c77 -73 36 -206 -70 -226 -42 -8 -100
19 -129 59 -42 57 -19 150 45 185 38 20 124 10 154 -18z m301 -3 c60 -54 57
-152 -5 -196 -90 -63 -211 -9 -211 95 0 87 45 133 133 134 40 0 53 -5 83 -33z
m255 23 c73 -21 109 -101 75 -172 -26 -54 -60 -68 -167 -68 -87 0 -92 1 -71
16 20 14 22 23 22 109 0 86 -2 95 -22 109 -21 15 -18 16 52 16 41 0 91 -5 111
-10z m-1351 -343 c55 -145 201 -250 366 -264 188 -16 376 112 438 300 5 15 22
17 188 16 l183 -1 -155 -15 c-85 -8 -156 -16 -159 -18 -2 -2 8 -18 23 -35 16
-19 26 -44 26 -63 0 -26 -2 -29 -12 -15 -7 9 -27 19 -45 23 -28 6 -33 4 -38
-18 -4 -14 0 -37 9 -54 17 -34 8 -102 -10 -72 -5 9 -19 22 -32 28 -35 19 -62
-8 -52 -52 7 -34 -6 -87 -21 -87 -5 0 -9 6 -9 13 0 8 -10 23 -23 35 -30 28
-52 13 -60 -42 -4 -22 -16 -49 -27 -60 l-20 -20 0 22 c0 36 -18 62 -43 62 -17
0 -28 -11 -42 -42 -11 -23 -31 -49 -45 -57 -17 -11 -22 -12 -16 -3 4 7 5 29 2
48 -9 46 -41 46 -81 0 -31 -35 -95 -67 -67 -33 7 9 12 31 10 49 -4 44 -37 49
-79 14 -17 -14 -42 -26 -55 -26 -23 0 -24 1 -10 23 26 41 27 61 6 75 -17 10
-26 10 -50 -3 -33 -17 -90 -20 -90 -5 0 6 4 10 9 10 5 0 16 11 25 25 14 21 14
28 4 45 -11 18 -20 20 -58 16 -30 -4 -53 -1 -70 9 -23 13 -23 14 -4 15 11 0
30 10 42 23 20 21 21 25 6 45 -10 15 -25 22 -48 22 -38 0 -97 39 -61 40 21 0
73 35 65 43 -3 3 -79 11 -170 20 l-165 15 199 -2 198 -1 18 -48z m124 21 c16
-52 18 -54 28 -20 14 52 38 41 38 -18 0 -54 -19 -71 -21 -17 l-1 32 -9 -32
c-5 -18 -13 -33 -18 -33 -4 0 -13 15 -19 33 l-10 32 -1 -32 c-1 -18 -5 -33
-11 -33 -11 0 -14 83 -3 93 10 11 23 8 27 -5z m156 2 c0 -5 -11 -10 -25 -10
-14 0 -25 -4 -25 -10 0 -5 11 -10 25 -10 14 0 25 -4 25 -10 0 -5 -11 -10 -25
-10 -38 0 -32 -28 8 -33 28 -3 26 -4 -10 -5 l-43 -2 0 50 0 50 35 0 c19 0 35
-4 35 -10z m100 0 c0 -5 -11 -10 -25 -10 -14 0 -25 -4 -25 -10 0 -5 8 -10 19
-10 24 0 45 -25 37 -45 -3 -9 -18 -15 -41 -15 l-35 0 0 50 0 50 35 0 c19 0 35
-4 35 -10z m100 0 c0 -5 -11 -10 -25 -10 -14 0 -25 -4 -25 -10 0 -5 11 -10 25
-10 14 0 25 -4 25 -10 0 -5 -11 -10 -25 -10 -34 0 -32 -28 3 -33 22 -3 20 -4
-10 -6 l-38 -1 0 50 0 50 35 0 c19 0 35 -4 35 -10z m100 -40 c0 -27 -4 -50
-10 -50 -5 0 -10 18 -10 40 0 53 -27 56 -32 3 -2 -20 -7 -38 -13 -40 -6 -2 -9
17 -7 47 4 50 4 50 38 50 l34 0 0 -50z m64 10 c28 0 50 -24 42 -45 -3 -9 -18
-15 -41 -15 l-35 0 1 53 c1 28 4 42 6 30 3 -16 11 -23 27 -23z m-382 -124 c2
-22 0 -32 -8 -29 -6 2 -9 15 -6 29 2 14 0 24 -7 24 -6 0 -11 -11 -11 -24 0
-14 -5 -28 -10 -31 -10 -6 -4 37 7 58 11 19 31 4 35 -27z m57 2 c-2 -31 -2
-31 -6 -5 -2 15 -9 27 -14 27 -5 0 -10 -12 -10 -27 -1 -18 -3 -22 -6 -10 -7
25 3 47 22 47 11 0 15 -9 14 -32z m60 0 c0 -18 -3 -27 -6 -20 -4 10 -8 10 -18
2 -11 -9 -13 -6 -11 17 5 35 3 33 21 33 10 0 15 -10 14 -32z m76 24 c14 -9 17
-52 4 -52 -6 0 -7 5 -4 10 3 6 -1 10 -10 10 -9 0 -13 -4 -10 -10 3 -5 1 -10
-4 -10 -12 0 -15 43 -4 53 8 9 15 9 28 -1z m65 -28 c6 -15 3 -19 -16 -19 -16
0 -22 5 -19 13 3 8 5 18 5 24 0 16 23 3 30 -18z m32 1 c3 -14 1 -25 -3 -25 -5
0 -9 11 -9 25 0 14 2 25 4 25 2 0 6 -11 8 -25z"/>
<path d="M647 1630 c-15 -35 -15 -35 10 -38 34 -5 36 0 20 39 l-15 34 -15 -35z"/>
<path d="M1204 1717 c-3 -8 -4 -54 -2 -103 l3 -89 32 -3 c24 -2 39 3 58 22 34
34 36 113 3 149 -27 29 -86 44 -94 24z"/>
<path d="M1888 1720 c-25 -15 -41 -75 -34 -125 16 -103 124 -106 140 -4 16 98
-41 167 -106 129z"/>
<path d="M2180 1708 c-15 -17 -20 -35 -20 -81 0 -66 11 -94 43 -106 37 -14 75
6 88 46 15 45 6 118 -16 143 -24 27 -69 25 -95 -2z"/>
<path d="M2485 1718 c-3 -8 -5 -55 -3 -104 l3 -89 32 -3 c24 -2 39 3 58 22 34
34 36 113 3 150 -28 30 -85 45 -93 24z"/>
<path d="M1180 1405 c0 -24 70 -134 112 -176 174 -174 470 -171 644 7 49 49
113 158 101 170 -3 3 -20 -22 -38 -56 -35 -66 -118 -149 -180 -181 -215 -109
-485 -23 -593 190 -15 28 -31 51 -36 51 -6 0 -10 -2 -10 -5z"/>
<path d="M1545 1360 c-8 -12 20 -24 35 -15 5 3 10 10 10 16 0 12 -37 12 -45
-1z"/>
<path d="M1843 1358 c2 -7 12 -13 22 -13 10 0 20 6 23 13 2 7 -6 12 -23 12
-17 0 -25 -5 -22 -12z"/>
<path d="M1570 1280 c0 -5 5 -10 10 -10 6 0 10 5 10 10 0 6 -4 10 -10 10 -5 0
-10 -4 -10 -10z"/>
<path d="M1650 1280 c0 -5 7 -10 16 -10 8 0 12 5 9 10 -3 6 -10 10 -16 10 -5
0 -9 -4 -9 -10z"/>
</g>
</svg>
